<?xml version="1.0" encoding="UTF-8"?>
<!--Generator: Apple Native CoreSVG 149-->
<!DOCTYPE svg
PUBLIC "-//W3C//DTD SVG 1.1//EN"
       "http://www.w3.org/Graphics/SVG/1.1/DTD/svg11.dtd">
<svg version="1.1" xmlns="http://www.w3.org/2000/svg" xmlns:xlink="http://www.w3.org/1999/xlink" width="17.7734" height="24.1309">
 <g>
  <rect height="24.1309" opacity="0" width="17.7734" x="0" y="0"/>
  <path d="M0 12.7246Q0 14.5801 0.693359 16.1914Q1.38672 17.8027 2.60254 19.0283Q3.81836 20.2539 5.43457 20.9424Q7.05078 21.6309 8.89648 21.6309Q10.7324 21.6309 12.3438 20.9424Q13.9551 20.2539 15.1807 19.0283Q16.4062 17.8027 17.0898 16.1914Q17.7734 14.5801 17.7734 12.7246Q17.7734 12.1582 17.417 11.7969Q17.0605 11.4355 16.5039 11.4355Q15.957 11.4355 15.6152 11.7969Q15.2734 12.1582 15.2734 12.7246Q15.2734 14.0527 14.7754 15.21Q14.2773 16.3672 13.4033 17.2461Q12.5293 18.125 11.3721 18.6182Q10.2148 19.1113 8.89648 19.1113Q7.56836 19.1113 6.41113 18.6182Q5.25391 18.125 4.37988 17.2461Q3.50586 16.3672 3.0127 15.21Q2.51953 14.0527 2.51953 12.7246Q2.51953 11.377 3.00293 10.21Q3.48633 9.04297 4.3457 8.16406Q5.20508 7.28516 6.34766 6.79199Q7.49023 6.29883 8.80859 6.29883Q9.15039 6.29883 9.46777 6.32812Q9.78516 6.35742 10.0586 6.40625L7.86133 8.57422Q7.70508 8.74023 7.60742 8.93555Q7.50977 9.13086 7.50977 9.39453Q7.50977 9.90234 7.86621 10.2588Q8.22266 10.6152 8.73047 10.6152Q9.24805 10.6152 9.58008 10.2734L13.5645 6.24023Q13.7598 6.04492 13.8574 5.81543Q13.9551 5.58594 13.9551 5.32227Q13.9551 4.80469 13.5645 4.41406L9.58008 0.361328Q9.23828 0 8.73047 0Q8.22266 0 7.86621 0.361328Q7.50977 0.722656 7.50977 1.25Q7.50977 1.50391 7.60254 1.69922Q7.69531 1.89453 7.85156 2.06055L9.79492 3.97461Q9.57031 3.93555 9.32129 3.91113Q9.07227 3.88672 8.80859 3.88672Q6.97266 3.88672 5.37109 4.57031Q3.76953 5.25391 2.56348 6.45996Q1.35742 7.66602 0.678711 9.27246Q0 10.8789 0 12.7246Z" fill="rgba(255,255,255,0.85)"/>
 </g>
</svg>
