<?xml version="1.0" encoding="UTF-8"?>
<!--Generator: Apple Native CoreSVG 149-->
<!DOCTYPE svg
PUBLIC "-//W3C//DTD SVG 1.1//EN"
       "http://www.w3.org/Graphics/SVG/1.1/DTD/svg11.dtd">
<svg version="1.1" xmlns="http://www.w3.org/2000/svg" xmlns:xlink="http://www.w3.org/1999/xlink" width="19.1309" height="19.1699">
 <g>
  <rect height="19.1699" opacity="0" width="19.1309" x="0" y="0"/>
  <path d="M1.36719 8.66211Q1.94336 8.66211 2.33398 8.29102Q2.72461 7.91992 2.72461 7.33398L2.72461 6.85547L2.50977 4.375L4.27734 6.25L6.75781 8.75Q7.13867 9.14062 7.71484 9.14062Q8.33984 9.14062 8.73535 8.74023Q9.13086 8.33984 9.13086 7.71484Q9.13086 7.44141 9.02344 7.20215Q8.91602 6.96289 8.7207 6.76758L6.23047 4.28711L4.35547 2.51953L6.86523 2.73438L7.49023 2.73438Q8.07617 2.73438 8.45215 2.34863Q8.82812 1.96289 8.82812 1.38672Q8.82812 0.791016 8.45215 0.405273Q8.07617 0.0195312 7.49023 0.0195312L2.09961 0.0195312Q1.10352 0.0195312 0.551758 0.571289Q0 1.12305 0 2.10938L0 7.33398Q0 7.91016 0.390625 8.28613Q0.78125 8.66211 1.36719 8.66211ZM11.6406 19.1699L17.041 19.1699Q18.0273 19.1699 18.5791 18.6182Q19.1309 18.0664 19.1309 17.0703L19.1309 11.8457Q19.1309 11.2695 18.7402 10.8936Q18.3496 10.5176 17.7637 10.5176Q17.1875 10.5176 16.7969 10.8887Q16.4062 11.2598 16.4062 11.8457L16.4062 12.334L16.6309 14.8047L14.8535 12.9297L12.3828 10.4395Q11.9922 10.0488 11.416 10.0488Q10.791 10.0488 10.3955 10.4443Q10 10.8398 10 11.4648Q10 11.7383 10.1074 11.9775Q10.2148 12.2168 10.4102 12.4121L12.9004 14.8926L14.7852 16.6602L12.2754 16.4453L11.6406 16.4453Q11.0547 16.4453 10.6787 16.8359Q10.3027 17.2266 10.3027 17.8027Q10.3027 18.3887 10.6787 18.7793Q11.0547 19.1699 11.6406 19.1699Z"/>
 </g>
</svg>
