<?xml version="1.0" encoding="UTF-8"?>
<!--Generator: Apple Native CoreSVG 149-->
<!DOCTYPE svg
PUBLIC "-//W3C//DTD SVG 1.1//EN"
       "http://www.w3.org/Graphics/SVG/1.1/DTD/svg11.dtd">
<svg version="1.1" xmlns="http://www.w3.org/2000/svg" xmlns:xlink="http://www.w3.org/1999/xlink" width="13.877" height="20.3418">
 <g>
  <rect height="20.3418" opacity="0" width="13.877" x="0" y="0"/>
  <path d="M2.08008 19.8145L11.7969 19.8145Q12.8516 19.8145 13.3643 19.2773Q13.877 18.7402 13.877 17.5977L13.877 10.0879Q13.877 8.96484 13.3643 8.42773Q12.8516 7.89062 11.7969 7.89062L2.1875 7.90039Q1.15234 7.90039 0.576172 8.43262Q0 8.96484 0 10.0879L0 17.5977Q0 18.7402 0.522461 19.2773Q1.04492 19.8145 2.08008 19.8145ZM1.71875 8.67188L4.0625 8.67188L4.0625 5.42969Q4.0625 4.42383 4.44824 3.71582Q4.83398 3.00781 5.48828 2.63672Q6.14258 2.26562 6.94336 2.26562Q7.74414 2.26562 8.39844 2.63672Q9.05273 3.00781 9.43359 3.71582Q9.81445 4.42383 9.81445 5.42969L9.81445 8.67188L12.168 8.67188L12.168 5.57617Q12.168 4.16992 11.7285 3.12012Q11.2891 2.07031 10.5469 1.37695Q9.80469 0.683594 8.86719 0.341797Q7.92969 0 6.94336 0Q5.94727 0 5.01465 0.341797Q4.08203 0.683594 3.33984 1.37695Q2.59766 2.07031 2.1582 3.12012Q1.71875 4.16992 1.71875 5.57617Z" fill="rgba(255,255,255,0.85)"/>
 </g>
</svg>
