<?xml version="1.0" encoding="UTF-8"?>
<!--Generator: Apple Native CoreSVG 149-->
<!DOCTYPE svg
PUBLIC "-//W3C//DTD SVG 1.1//EN"
       "http://www.w3.org/Graphics/SVG/1.1/DTD/svg11.dtd">
<svg version="1.1" xmlns="http://www.w3.org/2000/svg" xmlns:xlink="http://www.w3.org/1999/xlink" width="15.4297" height="0.791016">
 <g>
  <rect height="0.791016" opacity="0" width="15.4297" x="0" y="0"/>
  <path d="M0.371094 0.791016L15.0488 0.791016Q15.1562 0.791016 15.2441 0.742188Q15.332 0.693359 15.3809 0.605469Q15.4297 0.517578 15.4297 0.410156Q15.4297 0.302734 15.3809 0.219727Q15.332 0.136719 15.2441 0.0830078Q15.1562 0.0292969 15.0488 0.0292969L0.371094 0.0292969Q0.273438 0.0292969 0.19043 0.0830078Q0.107422 0.136719 0.0537109 0.219727Q0 0.302734 0 0.410156Q0 0.517578 0.0537109 0.605469Q0.107422 0.693359 0.19043 0.742188Q0.273438 0.791016 0.371094 0.791016Z"/>
 </g>
</svg>
