<?xml version="1.0" encoding="UTF-8"?>
<!--Generator: Apple Native CoreSVG 149-->
<!DOCTYPE svg
PUBLIC "-//W3C//DTD SVG 1.1//EN"
       "http://www.w3.org/Graphics/SVG/1.1/DTD/svg11.dtd">
<svg version="1.1" xmlns="http://www.w3.org/2000/svg" xmlns:xlink="http://www.w3.org/1999/xlink" width="19.1504" height="19.1504">
 <g>
  <rect height="19.1504" opacity="0" width="19.1504" x="0" y="0"/>
  <path d="M9.57031 19.1406Q11.5527 19.1406 13.2812 18.3936Q15.0098 17.6465 16.333 16.3281Q17.6562 15.0098 18.4033 13.2764Q19.1504 11.543 19.1504 9.57031Q19.1504 7.59766 18.4033 5.86426Q17.6562 4.13086 16.333 2.8125Q15.0098 1.49414 13.2764 0.74707Q11.543 0 9.57031 0Q7.59766 0 5.86426 0.74707Q4.13086 1.49414 2.8125 2.8125Q1.49414 4.13086 0.74707 5.86426Q0 7.59766 0 9.57031Q0 11.543 0.74707 13.2764Q1.49414 15.0098 2.8125 16.3281Q4.13086 17.6465 5.86426 18.3936Q7.59766 19.1406 9.57031 19.1406ZM9.57031 18.3984Q7.74414 18.3984 6.14258 17.7148Q4.54102 17.0312 3.3252 15.8154Q2.10938 14.5996 1.42578 12.998Q0.742188 11.3965 0.742188 9.57031Q0.742188 7.74414 1.42578 6.14258Q2.10938 4.54102 3.3252 3.32031Q4.54102 2.09961 6.14258 1.41602Q7.74414 0.732422 9.57031 0.732422Q11.4062 0.732422 13.0029 1.41602Q14.5996 2.09961 15.8203 3.32031Q17.041 4.54102 17.7246 6.14258Q18.4082 7.74414 18.4082 9.57031Q18.4082 11.3965 17.7246 12.998Q17.041 14.5996 15.8252 15.8154Q14.6094 17.0312 13.0078 17.7148Q11.4062 18.3984 9.57031 18.3984ZM5.36133 8.86719Q5.08789 9.0332 4.99512 9.30176Q4.90234 9.57031 4.99512 9.83887Q5.08789 10.1074 5.36133 10.2637L11.0156 13.6816Q11.2793 13.8379 11.5576 13.8135Q11.8359 13.7891 12.0264 13.5986Q12.2168 13.4082 12.2168 13.0957L12.2168 6.00586Q12.2168 5.69336 12.0264 5.50293Q11.8359 5.3125 11.5576 5.28809Q11.2793 5.26367 11.0156 5.41992ZM5.86914 9.39453L11.2109 6.13281Q11.3477 6.05469 11.4258 6.09863Q11.5039 6.14258 11.5039 6.2207L11.5039 12.8809Q11.5039 12.959 11.4258 13.0029Q11.3477 13.0469 11.2109 12.9688L5.86914 9.74609Q5.76172 9.67773 5.76172 9.57031Q5.76172 9.46289 5.86914 9.39453Z"/>
 </g>
</svg>