<?xml version="1.0" encoding="UTF-8"?>
<!--Generator: Apple Native CoreSVG 149-->
<!DOCTYPE svg
PUBLIC "-//W3C//DTD SVG 1.1//EN"
       "http://www.w3.org/Graphics/SVG/1.1/DTD/svg11.dtd">
<svg version="1.1" xmlns="http://www.w3.org/2000/svg" xmlns:xlink="http://www.w3.org/1999/xlink" width="18.2129" height="24.834">
 <g>
  <rect height="24.834" opacity="0" width="18.2129" x="0" y="0"/>
  <path d="M3.44727 22.8906L14.7656 22.8906Q16.4355 22.8906 17.3242 22.0068Q18.2129 21.123 18.2129 19.4531L18.2129 10.0781Q18.2129 8.41797 17.3242 7.53418Q16.4355 6.65039 14.7656 6.65039L12.2461 6.65039L12.2461 9.16992L14.4824 9.16992Q15.0684 9.16992 15.3809 9.46777Q15.6934 9.76562 15.6934 10.3906L15.6934 19.1504Q15.6934 19.7754 15.3809 20.0732Q15.0684 20.3711 14.4824 20.3711L3.7207 20.3711Q3.13477 20.3711 2.82715 20.0732Q2.51953 19.7754 2.51953 19.1504L2.51953 10.3906Q2.51953 9.76562 2.82715 9.46777Q3.13477 9.16992 3.7207 9.16992L6.01562 9.16992L6.01562 6.65039L3.44727 6.65039Q1.77734 6.65039 0.888672 7.53418Q0 8.41797 0 10.0781L0 19.4531Q0 21.123 0.888672 22.0068Q1.77734 22.8906 3.44727 22.8906ZM9.10156 14.8633Q9.58008 14.8633 9.90723 14.5312Q10.2344 14.1992 10.2344 13.7402L10.2344 4.23828L10.1367 2.80273L10.6445 3.56445L11.8262 4.81445Q12.1289 5.13672 12.5684 5.13672Q12.9492 5.13672 13.2471 4.87305Q13.5449 4.60938 13.5449 4.19922Q13.5449 3.81836 13.2422 3.50586L10 0.400391Q9.77539 0.175781 9.55566 0.0878906Q9.33594 0 9.10156 0Q8.87695 0 8.65723 0.0878906Q8.4375 0.175781 8.21289 0.400391L4.9707 3.50586Q4.66797 3.81836 4.66797 4.19922Q4.66797 4.60938 4.96094 4.87305Q5.25391 5.13672 5.64453 5.13672Q6.08398 5.13672 6.38672 4.81445L7.55859 3.56445L8.07617 2.80273L7.97852 4.23828L7.97852 13.7402Q7.97852 14.1992 8.30566 14.5312Q8.63281 14.8633 9.10156 14.8633Z" fill="rgba(255,255,255,0.85)"/>
 </g>
</svg>
