<?xml version="1.0" encoding="UTF-8"?>
<!--Generator: Apple Native CoreSVG 149-->
<!DOCTYPE svg
PUBLIC "-//W3C//DTD SVG 1.1//EN"
       "http://www.w3.org/Graphics/SVG/1.1/DTD/svg11.dtd">
<svg version="1.1" xmlns="http://www.w3.org/2000/svg" xmlns:xlink="http://www.w3.org/1999/xlink" width="18.916" height="17.8418">
 <g>
  <rect height="17.8418" opacity="0" width="18.916" x="0" y="0"/>
  <path d="M3.78906 17.7441L15.127 17.7441Q16.2109 17.7441 17.0654 17.2754Q17.9199 16.8066 18.418 15.9912Q18.916 15.1758 18.916 14.1113Q18.916 13.0469 18.418 12.2314Q17.9199 11.416 17.0654 10.9521Q16.2109 10.4883 15.127 10.4883L3.78906 10.4883Q2.70508 10.4883 1.8457 10.9521Q0.986328 11.416 0.493164 12.2314Q0 13.0469 0 14.1113Q0 15.1758 0.493164 15.9912Q0.986328 16.8066 1.8457 17.2754Q2.70508 17.7441 3.78906 17.7441ZM15.3711 16.9824Q14.5898 16.9824 13.9404 16.5918Q13.291 16.2012 12.9102 15.5566Q12.5293 14.9121 12.5293 14.1211Q12.5293 13.3398 12.9102 12.6904Q13.291 12.041 13.9404 11.6602Q14.5898 11.2793 15.3711 11.2793Q16.1719 11.2793 16.8213 11.6602Q17.4707 12.041 17.8516 12.6855Q18.2324 13.3301 18.2324 14.1016Q18.2324 14.9121 17.8467 15.5615Q17.4609 16.2109 16.8115 16.5967Q16.1621 16.9824 15.3711 16.9824ZM4.18945 8.28125L14.7266 8.28125Q15.8594 8.28125 16.8164 7.75391Q17.7734 7.22656 18.3447 6.28906Q18.916 5.35156 18.916 4.14062Q18.916 2.92969 18.3447 1.99219Q17.7734 1.05469 16.8164 0.527344Q15.8594 0 14.7266 0L4.18945 0Q3.04688 0 2.09961 0.527344Q1.15234 1.05469 0.576172 1.99219Q0 2.92969 0 4.14062Q0 5.35156 0.576172 6.28906Q1.15234 7.22656 2.09961 7.75391Q3.04688 8.28125 4.18945 8.28125ZM4.18945 7.58789Q3.26172 7.58789 2.46582 7.14355Q1.66992 6.69922 1.18652 5.92285Q0.703125 5.14648 0.703125 4.14062Q0.703125 3.13477 1.18652 2.3584Q1.66992 1.58203 2.46582 1.1377Q3.26172 0.693359 4.18945 0.693359L14.7266 0.693359Q15.6543 0.693359 16.4453 1.1377Q17.2363 1.58203 17.7246 2.3584Q18.2129 3.13477 18.2129 4.14062Q18.2129 5.14648 17.7246 5.92285Q17.2363 6.69922 16.4453 7.14355Q15.6543 7.58789 14.7266 7.58789ZM4.19922 6.95312Q4.9707 6.95312 5.61035 6.57715Q6.25 6.20117 6.63574 5.55664Q7.02148 4.91211 7.02148 4.13086Q7.01172 3.35938 6.63574 2.72461Q6.25977 2.08984 5.62012 1.71387Q4.98047 1.33789 4.19922 1.33789Q3.42773 1.33789 2.78809 1.71387Q2.14844 2.08984 1.77246 2.72461Q1.39648 3.35938 1.39648 4.14062Q1.39648 4.91211 1.77246 5.55176Q2.14844 6.19141 2.7832 6.57227Q3.41797 6.95312 4.19922 6.95312Z"/>
 </g>
</svg>
