<?xml version="1.0" encoding="UTF-8"?>
<!--Generator: Apple Native CoreSVG 149-->
<!DOCTYPE svg
PUBLIC "-//W3C//DTD SVG 1.1//EN"
       "http://www.w3.org/Graphics/SVG/1.1/DTD/svg11.dtd">
<svg version="1.1" xmlns="http://www.w3.org/2000/svg" xmlns:xlink="http://www.w3.org/1999/xlink" width="15.9155" height="15.9277">
 <g>
  <rect height="15.9277" opacity="0" width="15.9155" x="0" y="0"/>
  <path d="M0.361328 15.5664Q0.605469 15.8105 0.932617 15.8887Q1.25977 15.9668 1.58203 15.8887Q1.9043 15.8105 2.13867 15.5762L7.95898 9.75586L13.7793 15.5762Q14.0137 15.8105 14.3359 15.8887Q14.6582 15.9668 14.9805 15.8887Q15.3027 15.8105 15.5469 15.5664Q15.791 15.3223 15.8691 15Q15.9473 14.6777 15.8691 14.3555Q15.791 14.0332 15.5566 13.7988L9.74609 7.96875L15.5566 2.14844Q15.791 1.91406 15.874 1.5918Q15.957 1.26953 15.874 0.947266Q15.791 0.625 15.5469 0.390625Q15.3027 0.136719 14.9805 0.0585938Q14.6582-0.0195312 14.3359 0.0585938Q14.0137 0.136719 13.7793 0.371094L7.95898 6.19141L2.13867 0.371094Q1.9043 0.136719 1.57715 0.0585938Q1.25-0.0195312 0.922852 0.0585938Q0.595703 0.136719 0.361328 0.380859Q0.117188 0.625 0.0439453 0.947266Q-0.0292969 1.26953 0.0439453 1.59668Q0.117188 1.92383 0.351562 2.14844L6.17188 7.96875L0.351562 13.7988Q0.117188 14.0332 0.0390625 14.3555Q-0.0390625 14.6777 0.0390625 15Q0.117188 15.3223 0.361328 15.5664Z"/>
 </g>
</svg>
